Coordinates
version=1
nRows=6
nColumns=36
inDegrees=yes

Units are S.I. units (second, meters, Newtons, ...)
If the header above contains a line with 'inDegrees', this indicates whether rotational values are in degrees (yes) or radians (no).

endheader
time	pelvis_tilt	pelvis_list	pelvis_rotation	pelvis_tx	pelvis_ty	pelvis_tz	hip_flexion_r	hip_adduction_r	hip_rotation_r	knee_angle_r	knee_angle_r_beta	ankle_angle_r	subtalar_angle_r	mtp_angle_r	hip_flexion_l	hip_adduction_l	hip_rotation_l	knee_angle_l	knee_angle_l_beta	ankle_angle_l	subtalar_angle_l	mtp_angle_l	lumbar_extension	lumbar_bending	lumbar_rotation	arm_flex_r	arm_add_r	arm_rot_r	elbow_flex_r	pro_sup_r	arm_flex_l	arm_add_l	arm_rot_l	elbow_flex_l	pro_sup_l
      4.93333330	     -3.49946794	     -0.44915783	      0.54511728	      0.80134141	      0.98443618	      0.05972949	      4.18821103	     -3.09952005	    -10.65642073	      3.47403954	      0.06063343	      6.14430785	     -2.91816622	     -7.49999987	      4.89405669	     -4.09233502	     -0.79157887	      4.50415156	      0.07861227	      5.99358013	      3.64702198	     -7.49999987	      2.60139164	      1.45023318	     -0.42666495	     56.91941679	      0.84194744	     65.21219508	    119.34481689	     80.68179792	     50.95960551	      5.66946197	     63.17530625	    119.14125345	     84.67591346
      4.95000000	     -3.51249956	     -0.50349086	      0.50684558	      0.80272550	      0.98736993	      0.05995323	      4.36524399	     -3.04976746	    -10.59598813	      3.66091909	      0.06389509	      6.06081358	     -2.89593729	     -7.49999987	      5.14199830	     -4.16804332	     -0.79961859	      4.80362430	      0.08383906	      6.00080077	      3.59527582	     -7.49999987	      2.24373328	      1.49660594	     -0.38759962	     56.97999155	      0.81060286	     65.23359254	    119.37937461	     80.70638625	     51.03489065	      5.67358035	     63.05858809	    119.15850466	     84.70372514
      4.96666670	     -3.64894080	     -0.58060856	      0.45890301	      0.80188823	      0.98401090	      0.05977969	      4.71375786	     -2.97423469	    -10.49060036	      3.92848264	      0.06856496	      5.99679461	     -3.15012480	     -7.49999987	      5.58071995	     -4.25046863	     -0.71265035	      5.20031628	      0.09076264	      6.09713353	      3.26531900	     -7.49999987	      2.14782001	      1.62466381	     -0.38811247	     57.53320285	      0.81788429	     65.27447708	    119.70666523	     79.25105273	     51.38538427	      5.71572857	     62.81148375	    119.29512527	     83.10301829
      4.98333330	     -3.79112922	     -0.66266313	      0.47257412	      0.79880551	      0.98570305	      0.05721423	      5.12016193	     -2.93636940	    -10.52693030	      4.24395244	      0.07407094	      5.92724423	     -3.17637750	     -7.49999987	      6.07356707	     -4.32167033	     -0.62381147	      5.63277359	      0.09831045	      6.20856356	      3.09953122	     -7.49999987	      1.88567000	      1.79356053	     -0.49084899	     57.79422659	      0.60504671	     65.44542825	    119.79181438	     82.08328367	     51.37892425	      5.43022377	     62.33384541	    119.36206567	     86.85455597
      5.00000000	     -3.82365589	     -0.78059785	      0.44302285	      0.79401845	      0.98272285	      0.05973474	      5.52398333	     -2.85339082	    -10.57500653	      4.71831620	      0.08235015	      5.82193474	     -3.18075620	     -7.49999987	      6.55472262	     -4.45935459	     -0.54858549	      6.19043412	      0.10804346	      6.29029933	      3.04031091	     -7.49999987	      1.43477810	      1.95331643	     -0.33204668	     58.31947353	      0.54353818	     65.22192825	    119.81335935	     82.06087538	     51.83684624	      5.16798132	     62.13490348	    119.32179311	     86.84887482
      5.01666670	     -3.90654586	     -0.95507438	      0.37664452	      0.79583177	      0.98254918	      0.05981382	      6.10512693	     -2.74375952	    -10.64054243	      5.41813029	      0.09456421	      5.94653135	     -3.36310497	     -7.49999987	      7.24382501	     -4.64736917	     -0.45358396	      7.03413300	      0.12276878	      6.78673077	      2.66282283	     -7.49999987	      1.10543501	      2.22863044	     -0.02381664	     58.62266055	      0.02276087	     65.10589494	    119.67140411	     82.01949655	     52.14592214	      4.86076693	     61.93781247	    119.55576297	     86.84651946
